<?xml version="1.0" standalone="no"?><!DOCTYPE svg PUBLIC "-//W3C//DTD SVG 1.1//EN" "http://www.w3.org/Graphics/SVG/1.1/DTD/svg11.dtd"><svg xmlns="http://www.w3.org/2000/svg" version="1.1" width="571.524" height="339.885" xmlns:xlink="http://www.w3.org/1999/xlink" xlink="http://www.w3.org/1999/xlink" style="position:relative;overflow:hidden;" viewBox="60.364 3.968 571.524 339.885"><defs><filter id="4830a44f-1b01-492c-81c6-f3970f643d8c" x="-0.5" y="-0.5" width="2" height="2"><feGaussianBlur in="SourceAlpha" stdDeviation="2.183468117634379"/><feComposite in2="SourceAlpha" operator="arithmetic" k2="-1" k3="1" result="shadowdiff"/><feFlood flood-color="#FFFFFF" flood-opacity="1"/><feComposite in2="shadowdiff" operator="in"/><feComposite in2="SourceGraphic" operator="over" result="sourceEffect"/><feMerge><feMergeNode in="sourceEffect"/></feMerge></filter><filter id="5f6f893d-1cd6-45e1-8262-4c4649c537ab" x="-0.5" y="-0.5" width="2" height="2"><feFlood flood-color="#D694B2" result="flood"/><feComposite in="flood" in2="SourceAlpha" operator="in" result="mask"/><feGaussianBlur in="mask" stdDeviation="13.100808705806275" result="oEffect0"/><feMerge><feMergeNode in="oEffect0"/><feMergeNode in="SourceGraphic"/></feMerge></filter><filter id="0e116911-a80b-40a6-8eba-a79f0f25c146" x="-0.5" y="-0.5" width="2" height="2"><feGaussianBlur in="SourceAlpha" stdDeviation="1.9642756761090083"/><feComposite in2="SourceAlpha" operator="arithmetic" k2="-1" k3="1" result="shadowdiff"/><feFlood flood-color="#FFFFFF" flood-opacity="1"/><feComposite in2="shadowdiff" operator="in"/><feComposite in2="SourceGraphic" operator="over" result="sourceEffect"/><feMerge><feMergeNode in="sourceEffect"/></feMerge></filter><filter id="262f13e3-61fb-4f9a-8366-8202fde3e7c9" x="-0.5" y="-0.5" width="2" height="2"><feFlood flood-color="#D694B2" result="flood"/><feComposite in="flood" in2="SourceAlpha" operator="in" result="mask"/><feGaussianBlur in="mask" stdDeviation="11.78565405665405" result="oEffect0"/><feMerge><feMergeNode in="oEffect0"/><feMergeNode in="SourceGraphic"/></feMerge></filter><filter id="9e7e3752-bc42-402d-879e-de42ebba6152" x="-0.5" y="-0.5" width="2" height="2"><feGaussianBlur in="SourceAlpha" stdDeviation="1.9491482391990929"/><feComposite in2="SourceAlpha" operator="arithmetic" k2="-1" k3="1" result="shadowdiff"/><feFlood flood-color="#FFFFFF" flood-opacity="1"/><feComposite in2="shadowdiff" operator="in"/><feComposite in2="SourceGraphic" operator="over" result="sourceEffect"/><feMerge><feMergeNode in="sourceEffect"/></feMerge></filter><filter id="35a98802-f978-45a3-8fa5-bdd915ddfb6a" x="-0.5" y="-0.5" width="2" height="2"><feFlood flood-color="#D694B2" result="flood"/><feComposite in="flood" in2="SourceAlpha" operator="in" result="mask"/><feGaussianBlur in="mask" stdDeviation="11.694889435194556" result="oEffect0"/><feMerge><feMergeNode in="oEffect0"/><feMergeNode in="SourceGraphic"/></feMerge></filter><filter id="fe33eb0c-2bf7-4fa1-84ea-272f18c7889f" x="-0.5" y="-0.5" width="2" height="2"><feGaussianBlur in="SourceAlpha" stdDeviation="1.9294283042129563"/><feComposite in2="SourceAlpha" operator="arithmetic" k2="-1" k3="1" result="shadowdiff"/><feFlood flood-color="#FFFFFF" flood-opacity="1"/><feComposite in2="shadowdiff" operator="in"/><feComposite in2="SourceGraphic" operator="over" result="sourceEffect"/><feMerge><feMergeNode in="sourceEffect"/></feMerge></filter><filter id="23389eda-905f-4b3e-8707-b88f8403dbf4" x="-0.5" y="-0.5" width="2" height="2"><feFlood flood-color="#D694B2" result="flood"/><feComposite in="flood" in2="SourceAlpha" operator="in" result="mask"/><feGaussianBlur in="mask" stdDeviation="11.576569825277739" result="oEffect0"/><feMerge><feMergeNode in="oEffect0"/><feMergeNode in="SourceGraphic"/></feMerge></filter><filter id="562d7dad-2e5d-41fe-8310-40a392ae346d" x="-0.5" y="-0.5" width="2" height="2"><feGaussianBlur in="SourceAlpha" stdDeviation="1.4590388086708714"/><feComposite in2="SourceAlpha" operator="arithmetic" k2="-1" k3="1" result="shadowdiff"/><feFlood flood-color="#FFFFFF" flood-opacity="1"/><feComposite in2="shadowdiff" operator="in"/><feComposite in2="SourceGraphic" operator="over" result="sourceEffect"/><feMerge><feMergeNode in="sourceEffect"/></feMerge></filter><filter id="afb1ea0d-842f-4dcb-8ba7-d482855ecc96" x="-0.5" y="-0.5" width="2" height="2"><feFlood flood-color="#D694B2" result="flood"/><feComposite in="flood" in2="SourceAlpha" operator="in" result="mask"/><feGaussianBlur in="mask" stdDeviation="8.754232852025227" result="oEffect0"/><feMerge><feMergeNode in="oEffect0"/><feMergeNode in="SourceGraphic"/></feMerge></filter><filter id="906d7097-6b45-437a-8806-d21a5dfb67f9" x="-0.5" y="-0.5" width="2" height="2"><feGaussianBlur in="SourceAlpha" stdDeviation="1.962933392392327"/><feComposite in2="SourceAlpha" operator="arithmetic" k2="-1" k3="1" result="shadowdiff"/><feFlood flood-color="#FFFFFF" flood-opacity="1"/><feComposite in2="shadowdiff" operator="in"/><feComposite in2="SourceGraphic" operator="over" result="sourceEffect"/><feMerge><feMergeNode in="sourceEffect"/></feMerge></filter><filter id="1e20dac9-ab97-4b79-8304-77de3d9b98b8" x="-0.5" y="-0.5" width="2" height="2"><feFlood flood-color="#D694B2" result="flood"/><feComposite in="flood" in2="SourceAlpha" operator="in" result="mask"/><feGaussianBlur in="mask" stdDeviation="11.777600354353961" result="oEffect0"/><feMerge><feMergeNode in="oEffect0"/><feMergeNode in="SourceGraphic"/></feMerge></filter><filter id="625722f5-7b80-4610-8b18-58fa2784e12d" x="-0.25" y="-0.5" width="1.5" height="2"><feFlood flood-color="#000" flood-opacity="0.3" result="flood"/><feComposite in="flood" in2="SourceAlpha" operator="in" result="mask"/><feGaussianBlur in="mask" stdDeviation="5"/><feOffset dx="-5" dy="5" result="oEffect0"/><feMerge><feMergeNode in="oEffect0"/><feMergeNode in="SourceGraphic"/></feMerge></filter></defs><g><g width="194.321" height="22.135" transform="scale(1,1) translate(221.563,15.968)"><g stroke="#545454" stroke-opacity="1" stroke-width="0" stroke-dasharray="none" width="194.321" height="22.135" transform="scale(1,1) translate(0,0)" fill="none"><rect width="194.321" height="22.135"/></g><g width="194.32066345214847" height="22.13541603088379" transform="scale(1,1) translate(0,0)"><text width="194.32066345214847" height="22.13541603088379" transform="scale(1,1) translate(0,0)" xml:space="preserve"><tspan xml:space="preserve" text-rendering="optimizeSpeed" font-size="18.055555555555557" font-weight="bold" font-style="normal" text-decoration="none" fill="#333333" opacity="1" x="0" text-anchor="start" y="17.253" textLength="194.32066345214844" style="font-family: Calibri, Candara, Segoe, Segoe UI, Optima, Arial, sans-serif;">Tiling Windows Over Data</tspan></text></g></g><g width="400.014" height="71.289" transform="scale(1,1) translate(106.43,260.564)"><g stroke="#545454" stroke-opacity="1" stroke-width="0" stroke-dasharray="none" width="400.014" height="71.289" transform="scale(1,1) translate(0,0)" fill="none"><rect width="400.014" height="71.289"/></g><g width="400.01422119140625" height="71.28905868530273" transform="scale(1,1) translate(0,0)"><text width="400.01422119140625" height="71.28905868530273" transform="scale(1,1) translate(0,0)" xml:space="preserve"><tspan xml:space="preserve" text-rendering="optimizeSpeed" font-size="19.444444444444443" font-weight="bold" font-style="normal" text-decoration="none" fill="#333333" opacity="1" x="0" text-anchor="start" y="18.555" textLength="13.361612319946289" style="font-family: Calibri, Candara, Segoe, Segoe UI, Optima, Arial, sans-serif;">w</tspan><tspan xml:space="preserve" text-rendering="optimizeSpeed" font-size="19.444444444444443" font-weight="normal" font-style="normal" text-decoration="none" fill="#333333" opacity="1" x="13.362" text-anchor="start" y="18.555" textLength="280.5938415527344" style="font-family: Calibri, Candara, Segoe, Segoe UI, Optima, Arial, sans-serif;"> is the width spanning each window</tspan><tspan xml:space="preserve" text-rendering="optimizeSpeed" font-size="19.444444444444443" font-weight="bold" font-style="normal" text-decoration="none" fill="#333333" opacity="1" x="0" text-anchor="start" y="42.318" textLength="7.7565507888793945" style="font-family: Calibri, Candara, Segoe, Segoe UI, Optima, Arial, sans-serif;">s</tspan><tspan xml:space="preserve" text-rendering="optimizeSpeed" font-size="19.444444444444443" font-weight="normal" font-style="normal" text-decoration="none" fill="#333333" opacity="1" x="7.757" text-anchor="start" y="42.318" textLength="270.89434814453125" style="font-family: Calibri, Candara, Segoe, Segoe UI, Optima, Arial, sans-serif;"> is the slide between windows and</tspan><tspan xml:space="preserve" text-rendering="optimizeSpeed" font-size="19.444444444444443" font-weight="bold" font-style="normal" text-decoration="none" fill="#333333" opacity="1" x="283.051" text-anchor="start" y="42.318" textLength="49.27571487426758" style="font-family: Calibri, Candara, Segoe, Segoe UI, Optima, Arial, sans-serif;">s == w</tspan><tspan xml:space="preserve" text-rendering="optimizeSpeed" font-size="19.444444444444443" font-weight="normal" font-style="italic" text-decoration="none" fill="#333333" opacity="1" x="0" text-anchor="start" y="66.081" textLength="400.01422119140625" style="font-family: Calibri, Candara, Segoe, Segoe UI, Optima, Arial, sans-serif;">all currently windowed items expire with each slide</tspan></text></g></g><g width="536.524" height="69.216" transform="scale(1,1) translate(82.864,168.651)" filter="url(#625722f5-7b80-4610-8b18-58fa2784e12d)"><g stroke="#CFE9F7" stroke-opacity="1" stroke-width="1" stroke-dasharray="none" width="536.524" height="69.216" transform="scale(1,1) translate(0,0)" fill="url(#230a480a-f7d9-487c-8d90-f32fcdf08372)"><linearGradient id="230a480a-f7d9-487c-8d90-f32fcdf08372" x1="0" y1="0" x2="536.524" y2="69.216" gradientUnits="userSpaceOnUse"><stop offset="0%" style="stop-color:#E1BDAB;stop-opacity:1;"/><stop offset="100%" style="stop-color:#D33C3C;stop-opacity:1;"/></linearGradient><rect width="536.524" height="69.216"/></g></g><g width="42.669" height="42.669" transform="scale(1,1) translate(540.546,180.464)" filter="url(#5f6f893d-1cd6-45e1-8262-4c4649c537ab)"><g transform="scale(1,1) translate(0,0)" stroke="#CFE9F7" fill="#E3DCAE" fill-opacity="0.6509803921568628" stroke-opacity="1" filter="url(#4830a44f-1b01-492c-81c6-f3970f643d8c)"><path d="M0,5 a5,5 0 0,1 5,-5 l32.669,0 a5,5 0 0,1 5,5 l0,32.669 a5,5 0 0,1 -5,5 l-32.669,0 a5,5 0 0,1 -5,-5 z" stroke-width="1" stroke-dasharray="none"/></g><g width="38.74043017268764" height="38.74043017268758" transform="scale(1,1) translate(1.964,1.964)"><text width="38.74043017268764" height="33.854164123535156" transform="scale(1,1) translate(0,2.4431330245762126)" xml:space="preserve"><tspan xml:space="preserve" text-rendering="optimizeSpeed" font-size="13.88888888888889" font-weight="bold" font-style="normal" text-decoration="none" fill="#333333" opacity="1" x="4.536" text-anchor="start" y="13.346" textLength="12.578328132629395" style="font-family: Calibri, Candara, Segoe, Segoe UI, Optima, Arial, sans-serif;">6s</tspan><tspan xml:space="preserve" text-rendering="optimizeSpeed" font-size="13.88888888888889" font-weight="normal" font-style="normal" text-decoration="none" fill="#333333" opacity="1" x="17.114" text-anchor="start" y="13.346" textLength="13.951618194580078" style="font-family: Calibri, Candara, Segoe, Segoe UI, Optima, Arial, sans-serif;">+1</tspan><tspan xml:space="preserve" text-rendering="optimizeSpeed" font-size="13.88888888888889" font-weight="normal" font-style="normal" text-decoration="none" fill="#333333" opacity="1" x="7.57" text-anchor="start" y="30.273" textLength="7.01904296875" style="font-family: Calibri, Candara, Segoe, Segoe UI, Optima, Arial, sans-serif;">..</tspan><tspan xml:space="preserve" text-rendering="optimizeSpeed" font-size="13.88888888888889" font-weight="bold" font-style="normal" text-decoration="none" fill="#333333" opacity="1" x="14.589" text-anchor="start" y="30.273" textLength="16.58121681213379" style="font-family: Calibri, Candara, Segoe, Segoe UI, Optima, Arial, sans-serif;">7w</tspan></text></g></g><g width="28.181" height="28.181" transform="scale(1,1) translate(120.208,187.208)" filter="url(#afb1ea0d-842f-4dcb-8ba7-d482855ecc96)"><g transform="scale(1,1) translate(0,0)" stroke="#CFE9F7" fill="#E3DCAE" fill-opacity="0.6509803921568628" stroke-opacity="1" filter="url(#562d7dad-2e5d-41fe-8310-40a392ae346d)"><path d="M0,5 a5,5 0 0,1 5,-5 l18.181,0 a5,5 0 0,1 5,5 l0,18.181 a5,5 0 0,1 -5,5 l-18.181,0 a5,5 0 0,1 -5,-5 z" stroke-width="1" stroke-dasharray="none"/></g><g width="24.251843993417427" height="24.251843993417427" transform="scale(1,1) translate(1.964,1.964)"><text width="24.251843993417427" height="16.927082061767578" transform="scale(1,1) translate(0,3.6623809658249247)" xml:space="preserve"><tspan xml:space="preserve" text-rendering="optimizeSpeed" font-size="13.88888888888889" font-weight="normal" font-style="normal" text-decoration="none" fill="#333333" opacity="1" x="0.328" text-anchor="start" y="13.346" textLength="14.053343772888184" style="font-family: Calibri, Candara, Segoe, Segoe UI, Optima, Arial, sans-serif;">1..</tspan><tspan xml:space="preserve" text-rendering="optimizeSpeed" font-size="13.88888888888889" font-weight="bold" font-style="normal" text-decoration="none" fill="#333333" opacity="1" x="14.382" text-anchor="start" y="13.346" textLength="9.541829109191895" style="font-family: Calibri, Candara, Segoe, Segoe UI, Optima, Arial, sans-serif;">w</tspan></text></g></g><g width="37.589" height="37.589" transform="scale(1,1) translate(181.123,182.504)" filter="url(#23389eda-905f-4b3e-8707-b88f8403dbf4)"><g transform="scale(1,1) translate(0,0)" stroke="#CFE9F7" fill="#E3DCAE" fill-opacity="0.6509803921568628" stroke-opacity="1" filter="url(#fe33eb0c-2bf7-4fa1-84ea-272f18c7889f)"><path d="M0,5 a5,5 0 0,1 5,-5 l27.589,0 a5,5 0 0,1 5,5 l0,27.589 a5,5 0 0,1 -5,5 l-27.589,0 a5,5 0 0,1 -5,-5 z" stroke-width="1" stroke-dasharray="none"/></g><g width="33.65963390425915" height="33.854164123535156" transform="scale(1,1) translate(1.964,1.964)"><text width="33.65963390425915" height="33.854164123535156" transform="scale(1,1) translate(0,0)" xml:space="preserve"><tspan xml:space="preserve" text-rendering="optimizeSpeed" font-size="13.88888888888889" font-weight="bold" font-style="normal" text-decoration="none" fill="#333333" opacity="1" x="5.513" text-anchor="start" y="13.346" textLength="5.5440263748168945" style="font-family: Calibri, Candara, Segoe, Segoe UI, Optima, Arial, sans-serif;">s</tspan><tspan xml:space="preserve" text-rendering="optimizeSpeed" font-size="13.88888888888889" font-weight="normal" font-style="normal" text-decoration="none" fill="#333333" opacity="1" x="11.057" text-anchor="start" y="13.346" textLength="13.951618194580078" style="font-family: Calibri, Candara, Segoe, Segoe UI, Optima, Arial, sans-serif;">+1</tspan><tspan xml:space="preserve" text-rendering="optimizeSpeed" font-size="13.88888888888889" font-weight="normal" font-style="normal" text-decoration="none" fill="#333333" opacity="1" x="5.03" text-anchor="start" y="30.273" textLength="14.058431625366211" style="font-family: Calibri, Candara, Segoe, Segoe UI, Optima, Arial, sans-serif;">..2</tspan><tspan xml:space="preserve" text-rendering="optimizeSpeed" font-size="13.88888888888889" font-weight="bold" font-style="normal" text-decoration="none" fill="#333333" opacity="1" x="19.088" text-anchor="start" y="30.273" textLength="9.541829109191895" style="font-family: Calibri, Candara, Segoe, Segoe UI, Optima, Arial, sans-serif;">w</tspan></text></g></g><g width="38.259" height="38.259" transform="scale(1,1) translate(252.026,182.504)" filter="url(#1e20dac9-ab97-4b79-8304-77de3d9b98b8)"><g transform="scale(1,1) translate(0,0)" stroke="#CFE9F7" fill="#E3DCAE" fill-opacity="0.6509803921568628" stroke-opacity="1" filter="url(#906d7097-6b45-437a-8806-d21a5dfb67f9)"><path d="M0,5 a5,5 0 0,1 5,-5 l28.259,0 a5,5 0 0,1 5,5 l0,28.259 a5,5 0 0,1 -5,5 l-28.259,0 a5,5 0 0,1 -5,-5 z" stroke-width="1" stroke-dasharray="none"/></g><g width="34.32973566784659" height="34.329735667846535" transform="scale(1,1) translate(1.964,1.964)"><text width="34.32973566784659" height="33.854164123535156" transform="scale(1,1) translate(0,0.2377857721556893)" xml:space="preserve"><tspan xml:space="preserve" text-rendering="optimizeSpeed" font-size="13.88888888888889" font-weight="normal" font-style="normal" text-decoration="none" fill="#333333" opacity="1" x="2.328" text-anchor="start" y="13.346" textLength="7.0393877029418945" style="font-family: Calibri, Candara, Segoe, Segoe UI, Optima, Arial, sans-serif;">2</tspan><tspan xml:space="preserve" text-rendering="optimizeSpeed" font-size="13.88888888888889" font-weight="bold" font-style="normal" text-decoration="none" fill="#333333" opacity="1" x="9.368" text-anchor="start" y="13.346" textLength="5.5440263748168945" style="font-family: Calibri, Candara, Segoe, Segoe UI, Optima, Arial, sans-serif;">s</tspan><tspan xml:space="preserve" text-rendering="optimizeSpeed" font-size="13.88888888888889" font-weight="normal" font-style="normal" text-decoration="none" fill="#333333" opacity="1" x="14.912" text-anchor="start" y="13.346" textLength="13.951618194580078" style="font-family: Calibri, Candara, Segoe, Segoe UI, Optima, Arial, sans-serif;">+1</tspan><tspan xml:space="preserve" text-rendering="optimizeSpeed" font-size="13.88888888888889" font-weight="normal" font-style="normal" text-decoration="none" fill="#333333" opacity="1" x="5.365" text-anchor="start" y="30.273" textLength="14.058431625366211" style="font-family: Calibri, Candara, Segoe, Segoe UI, Optima, Arial, sans-serif;">..3</tspan><tspan xml:space="preserve" text-rendering="optimizeSpeed" font-size="13.88888888888889" font-weight="bold" font-style="normal" text-decoration="none" fill="#333333" opacity="1" x="19.423" text-anchor="start" y="30.273" textLength="9.541829109191895" style="font-family: Calibri, Candara, Segoe, Segoe UI, Optima, Arial, sans-serif;">w</tspan></text></g></g><g width="38.286" height="38.286" transform="scale(1,1) translate(323.05,182.504)" filter="url(#262f13e3-61fb-4f9a-8366-8202fde3e7c9)"><g transform="scale(1,1) translate(0,0)" stroke="#CFE9F7" fill="#E3DCAE" fill-opacity="0.6509803921568628" stroke-opacity="1" filter="url(#0e116911-a80b-40a6-8eba-a79f0f25c146)"><path d="M0,5 a5,5 0 0,1 5,-5 l28.286,0 a5,5 0 0,1 5,5 l0,28.286 a5,5 0 0,1 -5,5 l-28.286,0 a5,5 0 0,1 -5,-5 z" stroke-width="1" stroke-dasharray="none"/></g><g width="34.35658134218017" height="34.35658134218017" transform="scale(1,1) translate(1.964,1.964)"><text width="34.35658134218017" height="33.854164123535156" transform="scale(1,1) translate(0,0.2512086093225072)" xml:space="preserve"><tspan xml:space="preserve" text-rendering="optimizeSpeed" font-size="13.88888888888889" font-weight="normal" font-style="normal" text-decoration="none" fill="#333333" opacity="1" x="2.342" text-anchor="start" y="13.346" textLength="7.0393877029418945" style="font-family: Calibri, Candara, Segoe, Segoe UI, Optima, Arial, sans-serif;">3</tspan><tspan xml:space="preserve" text-rendering="optimizeSpeed" font-size="13.88888888888889" font-weight="bold" font-style="normal" text-decoration="none" fill="#333333" opacity="1" x="9.381" text-anchor="start" y="13.346" textLength="5.5440263748168945" style="font-family: Calibri, Candara, Segoe, Segoe UI, Optima, Arial, sans-serif;">s</tspan><tspan xml:space="preserve" text-rendering="optimizeSpeed" font-size="13.88888888888889" font-weight="normal" font-style="normal" text-decoration="none" fill="#333333" opacity="1" x="14.925" text-anchor="start" y="13.346" textLength="13.951618194580078" style="font-family: Calibri, Candara, Segoe, Segoe UI, Optima, Arial, sans-serif;">+1</tspan><tspan xml:space="preserve" text-rendering="optimizeSpeed" font-size="13.88888888888889" font-weight="normal" font-style="normal" text-decoration="none" fill="#333333" opacity="1" x="5.378" text-anchor="start" y="30.273" textLength="14.058431625366211" style="font-family: Calibri, Candara, Segoe, Segoe UI, Optima, Arial, sans-serif;">..4</tspan><tspan xml:space="preserve" text-rendering="optimizeSpeed" font-size="13.88888888888889" font-weight="bold" font-style="normal" text-decoration="none" fill="#333333" opacity="1" x="19.437" text-anchor="start" y="30.273" textLength="9.541829109191895" style="font-family: Calibri, Candara, Segoe, Segoe UI, Optima, Arial, sans-serif;">w</tspan></text></g></g><g width="37.983" height="37.983" transform="scale(1,1) translate(394.156,182.807)" filter="url(#35a98802-f978-45a3-8fa5-bdd915ddfb6a)"><g transform="scale(1,1) translate(0,0)" stroke="#CFE9F7" fill="#E3DCAE" fill-opacity="0.6509803921568628" stroke-opacity="1" filter="url(#9e7e3752-bc42-402d-879e-de42ebba6152)"><path d="M0,5 a5,5 0 0,1 5,-5 l27.983,0 a5,5 0 0,1 5,5 l0,27.983 a5,5 0 0,1 -5,5 l-27.983,0 a5,5 0 0,1 -5,-5 z" stroke-width="1" stroke-dasharray="none"/></g><g width="34.05403260398185" height="34.05403260398185" transform="scale(1,1) translate(1.964,1.964)"><text width="34.05403260398185" height="33.854164123535156" transform="scale(1,1) translate(0,0.09993424022334807)" xml:space="preserve"><tspan xml:space="preserve" text-rendering="optimizeSpeed" font-size="13.88888888888889" font-weight="normal" font-style="normal" text-decoration="none" fill="#333333" opacity="1" x="2.19" text-anchor="start" y="13.346" textLength="7.0393877029418945" style="font-family: Calibri, Candara, Segoe, Segoe UI, Optima, Arial, sans-serif;">4</tspan><tspan xml:space="preserve" text-rendering="optimizeSpeed" font-size="13.88888888888889" font-weight="bold" font-style="normal" text-decoration="none" fill="#333333" opacity="1" x="9.23" text-anchor="start" y="13.346" textLength="5.5440263748168945" style="font-family: Calibri, Candara, Segoe, Segoe UI, Optima, Arial, sans-serif;">s</tspan><tspan xml:space="preserve" text-rendering="optimizeSpeed" font-size="13.88888888888889" font-weight="normal" font-style="normal" text-decoration="none" fill="#333333" opacity="1" x="14.774" text-anchor="start" y="13.346" textLength="13.951618194580078" style="font-family: Calibri, Candara, Segoe, Segoe UI, Optima, Arial, sans-serif;">+1</tspan><tspan xml:space="preserve" text-rendering="optimizeSpeed" font-size="13.88888888888889" font-weight="normal" font-style="normal" text-decoration="none" fill="#333333" opacity="1" x="5.227" text-anchor="start" y="30.273" textLength="14.058431625366211" style="font-family: Calibri, Candara, Segoe, Segoe UI, Optima, Arial, sans-serif;">..5</tspan><tspan xml:space="preserve" text-rendering="optimizeSpeed" font-size="13.88888888888889" font-weight="bold" font-style="normal" text-decoration="none" fill="#333333" opacity="1" x="19.285" text-anchor="start" y="30.273" textLength="9.541829109191895" style="font-family: Calibri, Candara, Segoe, Segoe UI, Optima, Arial, sans-serif;">w</tspan></text></g></g><g width="42.669" height="42.669" transform="scale(1,1) translate(465.068,180.464)" filter="url(#5f6f893d-1cd6-45e1-8262-4c4649c537ab)"><g transform="scale(1,1) translate(0,0)" stroke="#CFE9F7" fill="#E3DCAE" fill-opacity="0.6509803921568628" stroke-opacity="1" filter="url(#4830a44f-1b01-492c-81c6-f3970f643d8c)"><path d="M0,5 a5,5 0 0,1 5,-5 l32.669,0 a5,5 0 0,1 5,5 l0,32.669 a5,5 0 0,1 -5,5 l-32.669,0 a5,5 0 0,1 -5,-5 z" stroke-width="1" stroke-dasharray="none"/></g><g width="38.74043017268758" height="38.74043017268758" transform="scale(1,1) translate(1.964,1.964)"><text width="38.74043017268758" height="33.854164123535156" transform="scale(1,1) translate(0,2.4431330245762126)" xml:space="preserve"><tspan xml:space="preserve" text-rendering="optimizeSpeed" font-size="13.88888888888889" font-weight="normal" font-style="normal" text-decoration="none" fill="#333333" opacity="1" x="4.534" text-anchor="start" y="13.346" textLength="7.0393877029418945" style="font-family: Calibri, Candara, Segoe, Segoe UI, Optima, Arial, sans-serif;">5</tspan><tspan xml:space="preserve" text-rendering="optimizeSpeed" font-size="13.88888888888889" font-weight="bold" font-style="normal" text-decoration="none" fill="#333333" opacity="1" x="11.573" text-anchor="start" y="13.346" textLength="5.5440263748168945" style="font-family: Calibri, Candara, Segoe, Segoe UI, Optima, Arial, sans-serif;">s</tspan><tspan xml:space="preserve" text-rendering="optimizeSpeed" font-size="13.88888888888889" font-weight="normal" font-style="normal" text-decoration="none" fill="#333333" opacity="1" x="17.117" text-anchor="start" y="13.346" textLength="13.951618194580078" style="font-family: Calibri, Candara, Segoe, Segoe UI, Optima, Arial, sans-serif;">+1</tspan><tspan xml:space="preserve" text-rendering="optimizeSpeed" font-size="13.88888888888889" font-weight="normal" font-style="normal" text-decoration="none" fill="#333333" opacity="1" x="7.57" text-anchor="start" y="30.273" textLength="14.058431625366211" style="font-family: Calibri, Candara, Segoe, Segoe UI, Optima, Arial, sans-serif;">..6</tspan><tspan xml:space="preserve" text-rendering="optimizeSpeed" font-size="13.88888888888889" font-weight="bold" font-style="normal" text-decoration="none" fill="#333333" opacity="1" x="21.629" text-anchor="start" y="30.273" textLength="9.541829109191895" style="font-family: Calibri, Candara, Segoe, Segoe UI, Optima, Arial, sans-serif;">w</tspan></text></g></g><g width="536.524" height="69.216" transform="scale(1,1) translate(82.864,74.194)" filter="url(#625722f5-7b80-4610-8b18-58fa2784e12d)"><g stroke="#CFE9F7" stroke-opacity="1" stroke-width="1" stroke-dasharray="none" width="536.524" height="69.216" transform="scale(1,1) translate(0,0)" fill="url(#d34ec3fa-f80c-4780-82b4-6fc3fe122951)"><linearGradient id="d34ec3fa-f80c-4780-82b4-6fc3fe122951" x1="0" y1="0" x2="536.524" y2="69.216" gradientUnits="userSpaceOnUse"><stop offset="0%" style="stop-color:#E1BDAB;stop-opacity:1;"/><stop offset="100%" style="stop-color:#D33C3C;stop-opacity:1;"/></linearGradient><rect width="536.524" height="69.216"/></g></g><g width="42.669" height="42.669" transform="scale(1,1) translate(541.869,87.227)" filter="url(#5f6f893d-1cd6-45e1-8262-4c4649c537ab)"><g transform="scale(1,1) translate(0,0)" stroke="#CFE9F7" fill="#E3DCAE" fill-opacity="0.6509803921568628" stroke-opacity="1" filter="url(#4830a44f-1b01-492c-81c6-f3970f643d8c)"><path d="M0,5 a5,5 0 0,1 5,-5 l32.669,0 a5,5 0 0,1 5,5 l0,32.669 a5,5 0 0,1 -5,5 l-32.669,0 a5,5 0 0,1 -5,-5 z" stroke-width="1" stroke-dasharray="none"/></g><g width="38.740430172687525" height="38.74043017268758" transform="scale(1,1) translate(1.964,1.964)"><text width="38.740430172687525" height="33.854164123535156" transform="scale(1,1) translate(0,2.4431330245762126)" xml:space="preserve"><tspan xml:space="preserve" text-rendering="optimizeSpeed" font-size="13.88888888888889" font-weight="bold" font-style="normal" text-decoration="none" fill="#333333" opacity="1" x="2.535" text-anchor="start" y="13.346" textLength="16.58121681213379" style="font-family: Calibri, Candara, Segoe, Segoe UI, Optima, Arial, sans-serif;">6w</tspan><tspan xml:space="preserve" text-rendering="optimizeSpeed" font-size="13.88888888888889" font-weight="normal" font-style="normal" text-decoration="none" fill="#333333" opacity="1" x="19.116" text-anchor="start" y="13.346" textLength="13.951618194580078" style="font-family: Calibri, Candara, Segoe, Segoe UI, Optima, Arial, sans-serif;">+1</tspan><tspan xml:space="preserve" text-rendering="optimizeSpeed" font-size="13.88888888888889" font-weight="normal" font-style="normal" text-decoration="none" fill="#333333" opacity="1" x="7.57" text-anchor="start" y="30.273" textLength="7.01904296875" style="font-family: Calibri, Candara, Segoe, Segoe UI, Optima, Arial, sans-serif;">..</tspan><tspan xml:space="preserve" text-rendering="optimizeSpeed" font-size="13.88888888888889" font-weight="bold" font-style="normal" text-decoration="none" fill="#333333" opacity="1" x="14.589" text-anchor="start" y="30.273" textLength="16.58121681213379" style="font-family: Calibri, Candara, Segoe, Segoe UI, Optima, Arial, sans-serif;">7w</tspan></text></g></g><g width="28.181" height="28.181" transform="scale(1,1) translate(121.531,93.972)" filter="url(#afb1ea0d-842f-4dcb-8ba7-d482855ecc96)"><g transform="scale(1,1) translate(0,0)" stroke="#CFE9F7" fill="#E3DCAE" fill-opacity="0.6509803921568628" stroke-opacity="1" filter="url(#562d7dad-2e5d-41fe-8310-40a392ae346d)"><path d="M0,5 a5,5 0 0,1 5,-5 l18.181,0 a5,5 0 0,1 5,5 l0,18.181 a5,5 0 0,1 -5,5 l-18.181,0 a5,5 0 0,1 -5,-5 z" stroke-width="1" stroke-dasharray="none"/></g><g width="24.251843993417427" height="24.251843993417427" transform="scale(1,1) translate(1.964,1.964)"><text width="24.251843993417427" height="16.927082061767578" transform="scale(1,1) translate(0,3.6623809658249247)" xml:space="preserve"><tspan xml:space="preserve" text-rendering="optimizeSpeed" font-size="13.88888888888889" font-weight="normal" font-style="normal" text-decoration="none" fill="#333333" opacity="1" x="0.328" text-anchor="start" y="13.346" textLength="14.053343772888184" style="font-family: Calibri, Candara, Segoe, Segoe UI, Optima, Arial, sans-serif;">1..</tspan><tspan xml:space="preserve" text-rendering="optimizeSpeed" font-size="13.88888888888889" font-weight="bold" font-style="normal" text-decoration="none" fill="#333333" opacity="1" x="14.382" text-anchor="start" y="13.346" textLength="9.541829109191895" style="font-family: Calibri, Candara, Segoe, Segoe UI, Optima, Arial, sans-serif;">w</tspan></text></g></g><g width="37.589" height="37.589" transform="scale(1,1) translate(182.446,89.268)" filter="url(#23389eda-905f-4b3e-8707-b88f8403dbf4)"><g transform="scale(1,1) translate(0,0)" stroke="#CFE9F7" fill="#E3DCAE" fill-opacity="0.6509803921568628" stroke-opacity="1" filter="url(#fe33eb0c-2bf7-4fa1-84ea-272f18c7889f)"><path d="M0,5 a5,5 0 0,1 5,-5 l27.589,0 a5,5 0 0,1 5,5 l0,27.589 a5,5 0 0,1 -5,5 l-27.589,0 a5,5 0 0,1 -5,-5 z" stroke-width="1" stroke-dasharray="none"/></g><g width="33.65963390425915" height="33.854164123535156" transform="scale(1,1) translate(1.964,1.964)"><text width="33.65963390425915" height="33.854164123535156" transform="scale(1,1) translate(0,0)" xml:space="preserve"><tspan xml:space="preserve" text-rendering="optimizeSpeed" font-size="13.88888888888889" font-weight="bold" font-style="normal" text-decoration="none" fill="#333333" opacity="1" x="3.514" text-anchor="start" y="13.346" textLength="9.541829109191895" style="font-family: Calibri, Candara, Segoe, Segoe UI, Optima, Arial, sans-serif;">w</tspan><tspan xml:space="preserve" text-rendering="optimizeSpeed" font-size="13.88888888888889" font-weight="normal" font-style="normal" text-decoration="none" fill="#333333" opacity="1" x="13.056" text-anchor="start" y="13.346" textLength="13.951618194580078" style="font-family: Calibri, Candara, Segoe, Segoe UI, Optima, Arial, sans-serif;">+1</tspan><tspan xml:space="preserve" text-rendering="optimizeSpeed" font-size="13.88888888888889" font-weight="normal" font-style="normal" text-decoration="none" fill="#333333" opacity="1" x="5.03" text-anchor="start" y="30.273" textLength="14.058431625366211" style="font-family: Calibri, Candara, Segoe, Segoe UI, Optima, Arial, sans-serif;">..2</tspan><tspan xml:space="preserve" text-rendering="optimizeSpeed" font-size="13.88888888888889" font-weight="bold" font-style="normal" text-decoration="none" fill="#333333" opacity="1" x="19.088" text-anchor="start" y="30.273" textLength="9.541829109191895" style="font-family: Calibri, Candara, Segoe, Segoe UI, Optima, Arial, sans-serif;">w</tspan></text></g></g><g width="38.259" height="38.259" transform="scale(1,1) translate(253.349,89.268)" filter="url(#1e20dac9-ab97-4b79-8304-77de3d9b98b8)"><g transform="scale(1,1) translate(0,0)" stroke="#CFE9F7" fill="#E3DCAE" fill-opacity="0.6509803921568628" stroke-opacity="1" filter="url(#906d7097-6b45-437a-8806-d21a5dfb67f9)"><path d="M0,5 a5,5 0 0,1 5,-5 l28.259,0 a5,5 0 0,1 5,5 l0,28.259 a5,5 0 0,1 -5,5 l-28.259,0 a5,5 0 0,1 -5,-5 z" stroke-width="1" stroke-dasharray="none"/></g><g width="34.32973566784659" height="34.329735667846535" transform="scale(1,1) translate(1.964,1.964)"><text width="34.32973566784659" height="33.854164123535156" transform="scale(1,1) translate(0,0.2377857721556893)" xml:space="preserve"><tspan xml:space="preserve" text-rendering="optimizeSpeed" font-size="13.88888888888889" font-weight="normal" font-style="normal" text-decoration="none" fill="#333333" opacity="1" x="0.329" text-anchor="start" y="13.346" textLength="7.0393877029418945" style="font-family: Calibri, Candara, Segoe, Segoe UI, Optima, Arial, sans-serif;">2</tspan><tspan xml:space="preserve" text-rendering="optimizeSpeed" font-size="13.88888888888889" font-weight="bold" font-style="normal" text-decoration="none" fill="#333333" opacity="1" x="7.369" text-anchor="start" y="13.346" textLength="9.541829109191895" style="font-family: Calibri, Candara, Segoe, Segoe UI, Optima, Arial, sans-serif;">w</tspan><tspan xml:space="preserve" text-rendering="optimizeSpeed" font-size="13.88888888888889" font-weight="normal" font-style="normal" text-decoration="none" fill="#333333" opacity="1" x="16.911" text-anchor="start" y="13.346" textLength="13.951618194580078" style="font-family: Calibri, Candara, Segoe, Segoe UI, Optima, Arial, sans-serif;">+1</tspan><tspan xml:space="preserve" text-rendering="optimizeSpeed" font-size="13.88888888888889" font-weight="normal" font-style="normal" text-decoration="none" fill="#333333" opacity="1" x="5.365" text-anchor="start" y="30.273" textLength="14.058431625366211" style="font-family: Calibri, Candara, Segoe, Segoe UI, Optima, Arial, sans-serif;">..3</tspan><tspan xml:space="preserve" text-rendering="optimizeSpeed" font-size="13.88888888888889" font-weight="bold" font-style="normal" text-decoration="none" fill="#333333" opacity="1" x="19.423" text-anchor="start" y="30.273" textLength="9.541829109191895" style="font-family: Calibri, Candara, Segoe, Segoe UI, Optima, Arial, sans-serif;">w</tspan></text></g></g><g width="38.286" height="38.286" transform="scale(1,1) translate(324.373,89.268)" filter="url(#262f13e3-61fb-4f9a-8366-8202fde3e7c9)"><g transform="scale(1,1) translate(0,0)" stroke="#CFE9F7" fill="#E3DCAE" fill-opacity="0.6509803921568628" stroke-opacity="1" filter="url(#0e116911-a80b-40a6-8eba-a79f0f25c146)"><path d="M0,5 a5,5 0 0,1 5,-5 l28.286,0 a5,5 0 0,1 5,5 l0,28.286 a5,5 0 0,1 -5,5 l-28.286,0 a5,5 0 0,1 -5,-5 z" stroke-width="1" stroke-dasharray="none"/></g><g width="34.35658134218017" height="34.35658134218017" transform="scale(1,1) translate(1.964,1.964)"><text width="34.35658134218017" height="33.854164123535156" transform="scale(1,1) translate(0,0.2512086093225072)" xml:space="preserve"><tspan xml:space="preserve" text-rendering="optimizeSpeed" font-size="13.88888888888889" font-weight="normal" font-style="normal" text-decoration="none" fill="#333333" opacity="1" x="0.343" text-anchor="start" y="13.346" textLength="7.0393877029418945" style="font-family: Calibri, Candara, Segoe, Segoe UI, Optima, Arial, sans-serif;">3</tspan><tspan xml:space="preserve" text-rendering="optimizeSpeed" font-size="13.88888888888889" font-weight="bold" font-style="normal" text-decoration="none" fill="#333333" opacity="1" x="7.382" text-anchor="start" y="13.346" textLength="9.541829109191895" style="font-family: Calibri, Candara, Segoe, Segoe UI, Optima, Arial, sans-serif;">w</tspan><tspan xml:space="preserve" text-rendering="optimizeSpeed" font-size="13.88888888888889" font-weight="normal" font-style="normal" text-decoration="none" fill="#333333" opacity="1" x="16.924" text-anchor="start" y="13.346" textLength="13.951618194580078" style="font-family: Calibri, Candara, Segoe, Segoe UI, Optima, Arial, sans-serif;">+1</tspan><tspan xml:space="preserve" text-rendering="optimizeSpeed" font-size="13.88888888888889" font-weight="normal" font-style="normal" text-decoration="none" fill="#333333" opacity="1" x="5.378" text-anchor="start" y="30.273" textLength="14.058431625366211" style="font-family: Calibri, Candara, Segoe, Segoe UI, Optima, Arial, sans-serif;">..4</tspan><tspan xml:space="preserve" text-rendering="optimizeSpeed" font-size="13.88888888888889" font-weight="bold" font-style="normal" text-decoration="none" fill="#333333" opacity="1" x="19.437" text-anchor="start" y="30.273" textLength="9.541829109191895" style="font-family: Calibri, Candara, Segoe, Segoe UI, Optima, Arial, sans-serif;">w</tspan></text></g></g><g width="37.983" height="37.983" transform="scale(1,1) translate(395.479,89.571)" filter="url(#35a98802-f978-45a3-8fa5-bdd915ddfb6a)"><g transform="scale(1,1) translate(0,0)" stroke="#CFE9F7" fill="#E3DCAE" fill-opacity="0.6509803921568628" stroke-opacity="1" filter="url(#9e7e3752-bc42-402d-879e-de42ebba6152)"><path d="M0,5 a5,5 0 0,1 5,-5 l27.983,0 a5,5 0 0,1 5,5 l0,27.983 a5,5 0 0,1 -5,5 l-27.983,0 a5,5 0 0,1 -5,-5 z" stroke-width="1" stroke-dasharray="none"/></g><g width="34.05403260398185" height="34.05403260398187" transform="scale(1,1) translate(1.964,1.964)"><text width="34.05403260398185" height="33.854164123535156" transform="scale(1,1) translate(0,0.09993424022335518)" xml:space="preserve"><tspan xml:space="preserve" text-rendering="optimizeSpeed" font-size="13.88888888888889" font-weight="normal" font-style="normal" text-decoration="none" fill="#333333" opacity="1" x="0.191" text-anchor="start" y="13.346" textLength="7.0393877029418945" style="font-family: Calibri, Candara, Segoe, Segoe UI, Optima, Arial, sans-serif;">4</tspan><tspan xml:space="preserve" text-rendering="optimizeSpeed" font-size="13.88888888888889" font-weight="bold" font-style="normal" text-decoration="none" fill="#333333" opacity="1" x="7.231" text-anchor="start" y="13.346" textLength="9.541829109191895" style="font-family: Calibri, Candara, Segoe, Segoe UI, Optima, Arial, sans-serif;">w</tspan><tspan xml:space="preserve" text-rendering="optimizeSpeed" font-size="13.88888888888889" font-weight="normal" font-style="normal" text-decoration="none" fill="#333333" opacity="1" x="16.773" text-anchor="start" y="13.346" textLength="13.951618194580078" style="font-family: Calibri, Candara, Segoe, Segoe UI, Optima, Arial, sans-serif;">+1</tspan><tspan xml:space="preserve" text-rendering="optimizeSpeed" font-size="13.88888888888889" font-weight="normal" font-style="normal" text-decoration="none" fill="#333333" opacity="1" x="5.227" text-anchor="start" y="30.273" textLength="14.058431625366211" style="font-family: Calibri, Candara, Segoe, Segoe UI, Optima, Arial, sans-serif;">..5</tspan><tspan xml:space="preserve" text-rendering="optimizeSpeed" font-size="13.88888888888889" font-weight="bold" font-style="normal" text-decoration="none" fill="#333333" opacity="1" x="19.285" text-anchor="start" y="30.273" textLength="9.541829109191895" style="font-family: Calibri, Candara, Segoe, Segoe UI, Optima, Arial, sans-serif;">w</tspan></text></g></g><g width="42.669" height="42.669" transform="scale(1,1) translate(466.391,87.227)" filter="url(#5f6f893d-1cd6-45e1-8262-4c4649c537ab)"><g transform="scale(1,1) translate(0,0)" stroke="#CFE9F7" fill="#E3DCAE" fill-opacity="0.6509803921568628" stroke-opacity="1" filter="url(#4830a44f-1b01-492c-81c6-f3970f643d8c)"><path d="M0,5 a5,5 0 0,1 5,-5 l32.669,0 a5,5 0 0,1 5,5 l0,32.669 a5,5 0 0,1 -5,5 l-32.669,0 a5,5 0 0,1 -5,-5 z" stroke-width="1" stroke-dasharray="none"/></g><g width="38.74043017268758" height="38.74043017268758" transform="scale(1,1) translate(1.964,1.964)"><text width="38.74043017268758" height="33.854164123535156" transform="scale(1,1) translate(0,2.4431330245762126)" xml:space="preserve"><tspan xml:space="preserve" text-rendering="optimizeSpeed" font-size="13.88888888888889" font-weight="normal" font-style="normal" text-decoration="none" fill="#333333" opacity="1" x="2.535" text-anchor="start" y="13.346" textLength="7.0393877029418945" style="font-family: Calibri, Candara, Segoe, Segoe UI, Optima, Arial, sans-serif;">5</tspan><tspan xml:space="preserve" text-rendering="optimizeSpeed" font-size="13.88888888888889" font-weight="bold" font-style="normal" text-decoration="none" fill="#333333" opacity="1" x="9.574" text-anchor="start" y="13.346" textLength="9.541829109191895" style="font-family: Calibri, Candara, Segoe, Segoe UI, Optima, Arial, sans-serif;">w</tspan><tspan xml:space="preserve" text-rendering="optimizeSpeed" font-size="13.88888888888889" font-weight="normal" font-style="normal" text-decoration="none" fill="#333333" opacity="1" x="19.116" text-anchor="start" y="13.346" textLength="13.951618194580078" style="font-family: Calibri, Candara, Segoe, Segoe UI, Optima, Arial, sans-serif;">+1</tspan><tspan xml:space="preserve" text-rendering="optimizeSpeed" font-size="13.88888888888889" font-weight="normal" font-style="normal" text-decoration="none" fill="#333333" opacity="1" x="7.57" text-anchor="start" y="30.273" textLength="14.058431625366211" style="font-family: Calibri, Candara, Segoe, Segoe UI, Optima, Arial, sans-serif;">..6</tspan><tspan xml:space="preserve" text-rendering="optimizeSpeed" font-size="13.88888888888889" font-weight="bold" font-style="normal" text-decoration="none" fill="#333333" opacity="1" x="21.629" text-anchor="start" y="30.273" textLength="9.541829109191895" style="font-family: Calibri, Candara, Segoe, Segoe UI, Optima, Arial, sans-serif;">w</tspan></text></g></g></g></svg>