<?xml version="1.0" standalone="no"?><!DOCTYPE svg PUBLIC "-//W3C//DTD SVG 1.1//EN" "http://www.w3.org/Graphics/SVG/1.1/DTD/svg11.dtd"><svg xmlns="http://www.w3.org/2000/svg" version="1.1" width="513.711" height="402.143" xmlns:xlink="http://www.w3.org/1999/xlink" xlink="http://www.w3.org/1999/xlink" style="position:relative;overflow:hidden;" viewBox="47.75 17.583 513.711 402.143"><defs><filter id="721c3a7c-7255-4c7d-87e0-01c933a303ab" x="-0.5" y="-0.5" width="2" height="2"><feFlood flood-color="#000" flood-opacity="0.3" result="flood"/><feComposite in="flood" in2="SourceAlpha" operator="in" result="mask"/><feGaussianBlur in="mask" stdDeviation="5"/><feOffset dx="-5" dy="5" result="oEffect0"/><feMerge><feMergeNode in="oEffect0"/><feMergeNode in="SourceGraphic"/></feMerge></filter><filter id="4f6f62d1-94af-449f-80d0-8016f1a677e3" x="-0.5" y="-0.5" width="2" height="2"><feGaussianBlur in="SourceAlpha" stdDeviation="1.1150926166106614"/><feComposite in2="SourceAlpha" operator="arithmetic" k2="-1" k3="1" result="shadowdiff"/><feFlood flood-color="#FFFFFF" flood-opacity="1"/><feComposite in2="shadowdiff" operator="in"/><feComposite in2="SourceGraphic" operator="over" result="sourceEffect"/><feMerge><feMergeNode in="sourceEffect"/></feMerge></filter><filter id="074dcc07-ff15-4c3f-815d-dc18e4879225" x="-0.5" y="-0.5" width="2" height="2"><feFlood flood-color="#D694B2" result="flood"/><feComposite in="flood" in2="SourceAlpha" operator="in" result="mask"/><feGaussianBlur in="mask" stdDeviation="6.690555699663968" result="oEffect0"/><feMerge><feMergeNode in="oEffect0"/><feMergeNode in="SourceGraphic"/></feMerge></filter><filter id="370519f3-36e3-4641-8174-c666a174e767" x="-0.5" y="-0.5" width="2" height="2"><feGaussianBlur in="SourceAlpha" stdDeviation="1.1242187501640246"/><feComposite in2="SourceAlpha" operator="arithmetic" k2="-1" k3="1" result="shadowdiff"/><feFlood flood-color="#FFFFFF" flood-opacity="1"/><feComposite in2="shadowdiff" operator="in"/><feComposite in2="SourceGraphic" operator="over" result="sourceEffect"/><feMerge><feMergeNode in="sourceEffect"/></feMerge></filter><filter id="dc027e02-c865-4575-8562-ba575c085634" x="-0.5" y="-0.5" width="2" height="2"><feFlood flood-color="#D694B2" result="flood"/><feComposite in="flood" in2="SourceAlpha" operator="in" result="mask"/><feGaussianBlur in="mask" stdDeviation="6.745312500984147" result="oEffect0"/><feMerge><feMergeNode in="oEffect0"/><feMergeNode in="SourceGraphic"/></feMerge></filter><filter id="e7d49006-6a24-47d9-8ab2-ffe87b73d05f" x="-0.5" y="-0.5" width="2" height="2"><feGaussianBlur in="SourceAlpha" stdDeviation="1.1376894148744525"/><feComposite in2="SourceAlpha" operator="arithmetic" k2="-1" k3="1" result="shadowdiff"/><feFlood flood-color="#FFFFFF" flood-opacity="1"/><feComposite in2="shadowdiff" operator="in"/><feComposite in2="SourceGraphic" operator="over" result="sourceEffect"/><feMerge><feMergeNode in="sourceEffect"/></feMerge></filter><filter id="c9cf042b-80d1-4d88-84fd-b15e44974176" x="-0.5" y="-0.5" width="2" height="2"><feFlood flood-color="#D694B2" result="flood"/><feComposite in="flood" in2="SourceAlpha" operator="in" result="mask"/><feGaussianBlur in="mask" stdDeviation="6.826136489246715" result="oEffect0"/><feMerge><feMergeNode in="oEffect0"/><feMergeNode in="SourceGraphic"/></feMerge></filter><filter id="dfcc0b0e-4a54-48d5-8e05-24a414fac6fc" x="-0.5" y="-0.5" width="2" height="2"><feGaussianBlur in="SourceAlpha" stdDeviation="1.2760397347987962"/><feComposite in2="SourceAlpha" operator="arithmetic" k2="-1" k3="1" result="shadowdiff"/><feFlood flood-color="#FFFFFF" flood-opacity="1"/><feComposite in2="shadowdiff" operator="in"/><feComposite in2="SourceGraphic" operator="over" result="sourceEffect"/><feMerge><feMergeNode in="sourceEffect"/></feMerge></filter><filter id="a3645f5e-2b33-499f-877f-1de05bae1843" x="-0.5" y="-0.5" width="2" height="2"><feFlood flood-color="#D694B2" result="flood"/><feComposite in="flood" in2="SourceAlpha" operator="in" result="mask"/><feGaussianBlur in="mask" stdDeviation="7.656238408792777" result="oEffect0"/><feMerge><feMergeNode in="oEffect0"/><feMergeNode in="SourceGraphic"/></feMerge></filter><filter id="7db087ea-6ea8-42e5-8f38-886689bf886f" x="-0.5" y="-0.5" width="2" height="2"><feGaussianBlur in="SourceAlpha" stdDeviation="1.2760397347987975"/><feComposite in2="SourceAlpha" operator="arithmetic" k2="-1" k3="1" result="shadowdiff"/><feFlood flood-color="#FFFFFF" flood-opacity="1"/><feComposite in2="shadowdiff" operator="in"/><feComposite in2="SourceGraphic" operator="over" result="sourceEffect"/><feMerge><feMergeNode in="sourceEffect"/></feMerge></filter><filter id="6b6f3528-56d4-4ee6-8f03-b3b606afabc0" x="-0.5" y="-0.5" width="2" height="2"><feFlood flood-color="#D694B2" result="flood"/><feComposite in="flood" in2="SourceAlpha" operator="in" result="mask"/><feGaussianBlur in="mask" stdDeviation="7.656238408792785" result="oEffect0"/><feMerge><feMergeNode in="oEffect0"/><feMergeNode in="SourceGraphic"/></feMerge></filter><filter id="269ca40a-70bd-4833-8cf8-24971f7df99c" x="-0.5" y="-0.5" width="2" height="2"><feGaussianBlur in="SourceAlpha" stdDeviation="1.3025123440026392"/><feComposite in2="SourceAlpha" operator="arithmetic" k2="-1" k3="1" result="shadowdiff"/><feFlood flood-color="#FFFFFF" flood-opacity="1"/><feComposite in2="shadowdiff" operator="in"/><feComposite in2="SourceGraphic" operator="over" result="sourceEffect"/><feMerge><feMergeNode in="sourceEffect"/></feMerge></filter><filter id="7040d756-78f0-425d-8c62-d6142388c06d" x="-0.5" y="-0.5" width="2" height="2"><feFlood flood-color="#D694B2" result="flood"/><feComposite in="flood" in2="SourceAlpha" operator="in" result="mask"/><feGaussianBlur in="mask" stdDeviation="7.8150740640158345" result="oEffect0"/><feMerge><feMergeNode in="oEffect0"/><feMergeNode in="SourceGraphic"/></feMerge></filter><filter id="d7d7e697-b8d9-42f4-8a90-6d3964c75bf3" x="-0.5" y="-0.5" width="2" height="2"><feGaussianBlur in="SourceAlpha" stdDeviation="1.2828289733865461"/><feComposite in2="SourceAlpha" operator="arithmetic" k2="-1" k3="1" result="shadowdiff"/><feFlood flood-color="#FFFFFF" flood-opacity="1"/><feComposite in2="shadowdiff" operator="in"/><feComposite in2="SourceGraphic" operator="over" result="sourceEffect"/><feMerge><feMergeNode in="sourceEffect"/></feMerge></filter><filter id="00b2055b-57af-4dd4-80a8-afff1d7ccff0" x="-0.5" y="-0.5" width="2" height="2"><feFlood flood-color="#D694B2" result="flood"/><feComposite in="flood" in2="SourceAlpha" operator="in" result="mask"/><feGaussianBlur in="mask" stdDeviation="7.696973840319276" result="oEffect0"/><feMerge><feMergeNode in="oEffect0"/><feMergeNode in="SourceGraphic"/></feMerge></filter><filter id="6dd241f7-3021-46c9-83ec-ae093929635a" x="-0.5" y="-0.5" width="2" height="2"><feGaussianBlur in="SourceAlpha" stdDeviation="1.451540955723931"/><feComposite in2="SourceAlpha" operator="arithmetic" k2="-1" k3="1" result="shadowdiff"/><feFlood flood-color="#FFFFFF" flood-opacity="1"/><feComposite in2="shadowdiff" operator="in"/><feComposite in2="SourceGraphic" operator="over" result="sourceEffect"/><feMerge><feMergeNode in="sourceEffect"/></feMerge></filter><filter id="2743ccce-76db-4c56-852f-9ddde60fc30d" x="-0.5" y="-0.5" width="2" height="2"><feFlood flood-color="#D694B2" result="flood"/><feComposite in="flood" in2="SourceAlpha" operator="in" result="mask"/><feGaussianBlur in="mask" stdDeviation="8.709245734343584" result="oEffect0"/><feMerge><feMergeNode in="oEffect0"/><feMergeNode in="SourceGraphic"/></feMerge></filter></defs><g><g width="478.711" height="62.314" transform="scale(1,1) translate(70.25,76.983)" filter="url(#721c3a7c-7255-4c7d-87e0-01c933a303ab)"><g stroke="#CFE9F7" stroke-opacity="1" stroke-width="1" stroke-dasharray="none" width="478.711" height="62.314" transform="scale(1,1) translate(0,0)" fill="url(#781ffb2c-2262-4e11-81ba-21e36ae0589c)"><linearGradient id="781ffb2c-2262-4e11-81ba-21e36ae0589c" x1="0" y1="0" x2="478.711" y2="62.314" gradientUnits="userSpaceOnUse"><stop offset="0%" style="stop-color:#E1BDAB;stop-opacity:1;"/><stop offset="100%" style="stop-color:#D33C3C;stop-opacity:1;"/></linearGradient><rect width="478.711" height="62.314"/></g></g><g width="21.302" height="21.302" transform="scale(1,1) translate(121.089,97.832)" filter="url(#074dcc07-ff15-4c3f-815d-dc18e4879225)"><g transform="scale(1,1) translate(0,0)" stroke="#CFE9F7" fill="#E2AEE3" fill-opacity="1" stroke-opacity="1" filter="url(#4f6f62d1-94af-449f-80d0-8016f1a677e3)"><path d="M0,5 a5,5 0 0,1 5,-5 l11.302,0 a5,5 0 0,1 5,5 l0,11.302 a5,5 0 0,1 -5,5 l-11.302,0 a5,5 0 0,1 -5,-5 z" stroke-width="1" stroke-dasharray="none"/></g><g width="17.372920152213254" height="17.372920152213226" transform="scale(1,1) translate(1.964,1.964)"><text width="17.372920152213254" height="16.927082061767578" transform="scale(1,1) translate(0,0.2229190452228238)" xml:space="preserve"><tspan xml:space="preserve" text-rendering="optimizeSpeed" font-size="13.88888888888889" font-weight="bold" font-style="normal" text-decoration="none" fill="#333333" opacity="1" x="5.167" text-anchor="start" y="13.346" textLength="7.0393877029418945" style="font-family: Calibri, Candara, Segoe, Segoe UI, Optima, Arial, sans-serif;">1</tspan></text></g></g><g width="21.302" height="21.302" transform="scale(1,1) translate(169.383,97.832)" filter="url(#074dcc07-ff15-4c3f-815d-dc18e4879225)"><g transform="scale(1,1) translate(0,0)" stroke="#CFE9F7" fill="#E2AEE3" fill-opacity="1" stroke-opacity="1" filter="url(#4f6f62d1-94af-449f-80d0-8016f1a677e3)"><path d="M0,5 a5,5 0 0,1 5,-5 l11.302,0 a5,5 0 0,1 5,5 l0,11.302 a5,5 0 0,1 -5,5 l-11.302,0 a5,5 0 0,1 -5,-5 z" stroke-width="1" stroke-dasharray="none"/></g><g width="17.372920152213254" height="17.372920152213226" transform="scale(1,1) translate(1.964,1.964)"><text width="17.372920152213254" height="16.927082061767578" transform="scale(1,1) translate(0,0.2229190452228238)" xml:space="preserve"><tspan xml:space="preserve" text-rendering="optimizeSpeed" font-size="13.88888888888889" font-weight="bold" font-style="normal" text-decoration="none" fill="#333333" opacity="1" x="5.167" text-anchor="start" y="13.346" textLength="7.0393877029418945" style="font-family: Calibri, Candara, Segoe, Segoe UI, Optima, Arial, sans-serif;">2</tspan></text></g></g><g width="21.302" height="21.302" transform="scale(1,1) translate(221.024,97.832)" filter="url(#074dcc07-ff15-4c3f-815d-dc18e4879225)"><g transform="scale(1,1) translate(0,0)" stroke="#CFE9F7" fill="#E2AEE3" fill-opacity="1" stroke-opacity="1" filter="url(#4f6f62d1-94af-449f-80d0-8016f1a677e3)"><path d="M0,5 a5,5 0 0,1 5,-5 l11.302,0 a5,5 0 0,1 5,5 l0,11.302 a5,5 0 0,1 -5,5 l-11.302,0 a5,5 0 0,1 -5,-5 z" stroke-width="1" stroke-dasharray="none"/></g><g width="17.372920152213254" height="17.372920152213226" transform="scale(1,1) translate(1.964,1.964)"><text width="17.372920152213254" height="16.927082061767578" transform="scale(1,1) translate(0,0.2229190452228238)" xml:space="preserve"><tspan xml:space="preserve" text-rendering="optimizeSpeed" font-size="13.88888888888889" font-weight="bold" font-style="normal" text-decoration="none" fill="#333333" opacity="1" x="5.167" text-anchor="start" y="13.346" textLength="7.0393877029418945" style="font-family: Calibri, Candara, Segoe, Segoe UI, Optima, Arial, sans-serif;">3</tspan></text></g></g><g width="21.302" height="21.302" transform="scale(1,1) translate(267.844,97.832)" filter="url(#074dcc07-ff15-4c3f-815d-dc18e4879225)"><g transform="scale(1,1) translate(0,0)" stroke="#CFE9F7" fill="#E2AEE3" fill-opacity="1" stroke-opacity="1" filter="url(#4f6f62d1-94af-449f-80d0-8016f1a677e3)"><path d="M0,5 a5,5 0 0,1 5,-5 l11.302,0 a5,5 0 0,1 5,5 l0,11.302 a5,5 0 0,1 -5,5 l-11.302,0 a5,5 0 0,1 -5,-5 z" stroke-width="1" stroke-dasharray="none"/></g><g width="17.372920152213226" height="17.372920152213226" transform="scale(1,1) translate(1.964,1.964)"><text width="17.372920152213226" height="16.927082061767578" transform="scale(1,1) translate(0,0.2229190452228238)" xml:space="preserve"><tspan xml:space="preserve" text-rendering="optimizeSpeed" font-size="13.88888888888889" font-weight="bold" font-style="normal" text-decoration="none" fill="#333333" opacity="1" x="5.167" text-anchor="start" y="13.346" textLength="7.0393877029418945" style="font-family: Calibri, Candara, Segoe, Segoe UI, Optima, Arial, sans-serif;">4</tspan></text></g></g><g width="21.484" height="21.484" transform="scale(1,1) translate(318.941,97.649)" filter="url(#dc027e02-c865-4575-8562-ba575c085634)"><g transform="scale(1,1) translate(0,0)" stroke="#CFE9F7" fill="#E2AEE3" fill-opacity="1" stroke-opacity="1" filter="url(#370519f3-36e3-4641-8174-c666a174e767)"><path d="M0,5 a5,5 0 0,1 5,-5 l11.484,0 a5,5 0 0,1 5,5 l0,11.484 a5,5 0 0,1 -5,5 l-11.484,0 a5,5 0 0,1 -5,-5 z" stroke-width="1" stroke-dasharray="none"/></g><g width="17.555442823280487" height="17.555442823280487" transform="scale(1,1) translate(1.964,1.964)"><text width="17.555442823280487" height="16.927082061767578" transform="scale(1,1) translate(0,0.31418038075645427)" xml:space="preserve"><tspan xml:space="preserve" text-rendering="optimizeSpeed" font-size="13.88888888888889" font-weight="bold" font-style="normal" text-decoration="none" fill="#333333" opacity="1" x="5.258" text-anchor="start" y="13.346" textLength="7.0393877029418945" style="font-family: Calibri, Candara, Segoe, Segoe UI, Optima, Arial, sans-serif;">5</tspan></text></g></g><g width="21.302" height="21.302" transform="scale(1,1) translate(369.891,97.832)" filter="url(#074dcc07-ff15-4c3f-815d-dc18e4879225)"><g transform="scale(1,1) translate(0,0)" stroke="#CFE9F7" fill="#E2AEE3" fill-opacity="1" stroke-opacity="1" filter="url(#4f6f62d1-94af-449f-80d0-8016f1a677e3)"><path d="M0,5 a5,5 0 0,1 5,-5 l11.302,0 a5,5 0 0,1 5,5 l0,11.302 a5,5 0 0,1 -5,5 l-11.302,0 a5,5 0 0,1 -5,-5 z" stroke-width="1" stroke-dasharray="none"/></g><g width="17.372920152213226" height="17.372920152213226" transform="scale(1,1) translate(1.964,1.964)"><text width="17.372920152213226" height="16.927082061767578" transform="scale(1,1) translate(0,0.2229190452228238)" xml:space="preserve"><tspan xml:space="preserve" text-rendering="optimizeSpeed" font-size="13.88888888888889" font-weight="bold" font-style="normal" text-decoration="none" fill="#333333" opacity="1" x="5.167" text-anchor="start" y="13.346" textLength="7.0393877029418945" style="font-family: Calibri, Candara, Segoe, Segoe UI, Optima, Arial, sans-serif;">6</tspan></text></g></g><g width="21.302" height="21.302" transform="scale(1,1) translate(421.308,97.832)" filter="url(#074dcc07-ff15-4c3f-815d-dc18e4879225)"><g transform="scale(1,1) translate(0,0)" stroke="#CFE9F7" fill="#E2AEE3" fill-opacity="1" stroke-opacity="1" filter="url(#4f6f62d1-94af-449f-80d0-8016f1a677e3)"><path d="M0,5 a5,5 0 0,1 5,-5 l11.302,0 a5,5 0 0,1 5,5 l0,11.302 a5,5 0 0,1 -5,5 l-11.302,0 a5,5 0 0,1 -5,-5 z" stroke-width="1" stroke-dasharray="none"/></g><g width="17.372920152213283" height="17.372920152213226" transform="scale(1,1) translate(1.964,1.964)"><text width="17.372920152213283" height="16.927082061767578" transform="scale(1,1) translate(0,0.2229190452228238)" xml:space="preserve"><tspan xml:space="preserve" text-rendering="optimizeSpeed" font-size="13.88888888888889" font-weight="bold" font-style="normal" text-decoration="none" fill="#333333" opacity="1" x="5.167" text-anchor="start" y="13.346" textLength="7.0393877029418945" style="font-family: Calibri, Candara, Segoe, Segoe UI, Optima, Arial, sans-serif;">7</tspan></text></g></g><g width="21.302" height="21.302" transform="scale(1,1) translate(472.584,97.832)" filter="url(#074dcc07-ff15-4c3f-815d-dc18e4879225)"><g transform="scale(1,1) translate(0,0)" stroke="#CFE9F7" fill="#E2AEE3" fill-opacity="1" stroke-opacity="1" filter="url(#4f6f62d1-94af-449f-80d0-8016f1a677e3)"><path d="M0,5 a5,5 0 0,1 5,-5 l11.302,0 a5,5 0 0,1 5,5 l0,11.302 a5,5 0 0,1 -5,5 l-11.302,0 a5,5 0 0,1 -5,-5 z" stroke-width="1" stroke-dasharray="none"/></g><g width="17.372920152213226" height="17.372920152213226" transform="scale(1,1) translate(1.964,1.964)"><text width="17.372920152213226" height="16.927082061767578" transform="scale(1,1) translate(0,0.2229190452228238)" xml:space="preserve"><tspan xml:space="preserve" text-rendering="optimizeSpeed" font-size="13.88888888888889" font-weight="bold" font-style="normal" text-decoration="none" fill="#333333" opacity="1" x="5.167" text-anchor="start" y="13.346" textLength="7.0393877029418945" style="font-family: Calibri, Candara, Segoe, Segoe UI, Optima, Arial, sans-serif;">8</tspan></text></g></g><g width="478.711" height="69.216" transform="scale(1,1) translate(70.25,172.354)" filter="url(#721c3a7c-7255-4c7d-87e0-01c933a303ab)"><g stroke="#CFE9F7" stroke-opacity="1" stroke-width="1" stroke-dasharray="none" width="478.711" height="69.216" transform="scale(1,1) translate(0,0)" fill="url(#f47b37a2-9227-4c20-8fc8-9470e3d6391e)"><linearGradient id="f47b37a2-9227-4c20-8fc8-9470e3d6391e" x1="0" y1="0" x2="478.711" y2="69.216" gradientUnits="userSpaceOnUse"><stop offset="0%" style="stop-color:#E1BDAB;stop-opacity:1;"/><stop offset="100%" style="stop-color:#D33C3C;stop-opacity:1;"/></linearGradient><rect width="478.711" height="69.216"/></g></g><g width="21.754" height="21.754" transform="scale(1,1) translate(121.089,196.891)" filter="url(#c9cf042b-80d1-4d88-84fd-b15e44974176)"><g transform="scale(1,1) translate(0,0)" stroke="#CFE9F7" fill="#E2AEE3" fill-opacity="1" stroke-opacity="1" filter="url(#e7d49006-6a24-47d9-8ab2-ffe87b73d05f)"><path d="M0,5 a5,5 0 0,1 5,-5 l11.754,0 a5,5 0 0,1 5,5 l0,11.754 a5,5 0 0,1 -5,5 l-11.754,0 a5,5 0 0,1 -5,-5 z" stroke-width="1" stroke-dasharray="none"/></g><g width="17.824856117489052" height="17.82485611748911" transform="scale(1,1) translate(1.964,1.964)"><text width="17.824856117489052" height="16.927082061767578" transform="scale(1,1) translate(0,0.4488870278607653)" xml:space="preserve"><tspan xml:space="preserve" text-rendering="optimizeSpeed" font-size="13.88888888888889" font-weight="bold" font-style="italic" text-decoration="none" fill="#333333" opacity="1" x="7.206" text-anchor="start" y="13.346" textLength="3.4128823280334473" style="font-family: Calibri, Candara, Segoe, Segoe UI, Optima, Arial, sans-serif;">i</tspan></text></g></g><g width="24.521" height="24.521" transform="scale(1,1) translate(167.645,195.508)" filter="url(#a3645f5e-2b33-499f-877f-1de05bae1843)"><g transform="scale(1,1) translate(0,0)" stroke="#CFE9F7" fill="#E2AEE3" fill-opacity="1" stroke-opacity="1" filter="url(#dfcc0b0e-4a54-48d5-8e05-24a414fac6fc)"><path d="M0,5 a5,5 0 0,1 5,-5 l14.521,0 a5,5 0 0,1 5,5 l0,14.521 a5,5 0 0,1 -5,5 l-14.521,0 a5,5 0 0,1 -5,-5 z" stroke-width="1" stroke-dasharray="none"/></g><g width="20.591862515975922" height="20.59186251597595" transform="scale(1,1) translate(1.964,1.964)"><text width="20.591862515975922" height="16.927082061767578" transform="scale(1,1) translate(0,1.8323902271041863)" xml:space="preserve"><tspan xml:space="preserve" text-rendering="optimizeSpeed" font-size="13.88888888888889" font-weight="bold" font-style="italic" text-decoration="none" fill="#333333" opacity="1" x="0.039" text-anchor="start" y="13.346" textLength="3.4128823280334473" style="font-family: Calibri, Candara, Segoe, Segoe UI, Optima, Arial, sans-serif;">i</tspan><tspan xml:space="preserve" text-rendering="optimizeSpeed" font-size="13.88888888888889" font-weight="normal" font-style="normal" text-decoration="none" fill="#333333" opacity="1" x="6.596" text-anchor="start" y="13.346" textLength="13.956705093383789" style="font-family: Calibri, Candara, Segoe, Segoe UI, Optima, Arial, sans-serif;">+1</tspan></text></g></g><g width="24.521" height="24.521" transform="scale(1,1) translate(219.182,195.452)" filter="url(#6b6f3528-56d4-4ee6-8f03-b3b606afabc0)"><g transform="scale(1,1) translate(0,0)" stroke="#CFE9F7" fill="#E2AEE3" fill-opacity="1" stroke-opacity="1" filter="url(#7db087ea-6ea8-42e5-8f38-886689bf886f)"><path d="M0,5 a5,5 0 0,1 5,-5 l14.521,0 a5,5 0 0,1 5,5 l0,14.521 a5,5 0 0,1 -5,5 l-14.521,0 a5,5 0 0,1 -5,-5 z" stroke-width="1" stroke-dasharray="none"/></g><g width="20.59186251597595" height="20.59186251597595" transform="scale(1,1) translate(1.964,1.964)"><text width="20.59186251597595" height="16.927082061767578" transform="scale(1,1) translate(0,1.8323902271041863)" xml:space="preserve"><tspan xml:space="preserve" text-rendering="optimizeSpeed" font-size="13.88888888888889" font-weight="bold" font-style="italic" text-decoration="none" fill="#333333" opacity="1" x="0.042" text-anchor="start" y="13.346" textLength="3.4077959060668945" style="font-family: Calibri, Candara, Segoe, Segoe UI, Optima, Arial, sans-serif;">i</tspan><tspan xml:space="preserve" text-rendering="optimizeSpeed" font-size="13.88888888888889" font-weight="normal" font-style="normal" text-decoration="none" fill="#333333" opacity="1" x="6.593" text-anchor="start" y="13.346" textLength="13.956705093383789" style="font-family: Calibri, Candara, Segoe, Segoe UI, Optima, Arial, sans-serif;">+2</tspan></text></g></g><g width="24.521" height="24.521" transform="scale(1,1) translate(266.235,195.452)" filter="url(#6b6f3528-56d4-4ee6-8f03-b3b606afabc0)"><g transform="scale(1,1) translate(0,0)" stroke="#CFE9F7" fill="#E2AEE3" fill-opacity="1" stroke-opacity="1" filter="url(#7db087ea-6ea8-42e5-8f38-886689bf886f)"><path d="M0,5 a5,5 0 0,1 5,-5 l14.521,0 a5,5 0 0,1 5,5 l0,14.521 a5,5 0 0,1 -5,5 l-14.521,0 a5,5 0 0,1 -5,-5 z" stroke-width="1" stroke-dasharray="none"/></g><g width="20.59186251597595" height="20.59186251597595" transform="scale(1,1) translate(1.964,1.964)"><text width="20.59186251597595" height="16.927082061767578" transform="scale(1,1) translate(0,1.8323902271041863)" xml:space="preserve"><tspan xml:space="preserve" text-rendering="optimizeSpeed" font-size="13.88888888888889" font-weight="bold" font-style="italic" text-decoration="none" fill="#333333" opacity="1" x="0.042" text-anchor="start" y="13.346" textLength="3.4077959060668945" style="font-family: Calibri, Candara, Segoe, Segoe UI, Optima, Arial, sans-serif;">i</tspan><tspan xml:space="preserve" text-rendering="optimizeSpeed" font-size="13.88888888888889" font-weight="normal" font-style="normal" text-decoration="none" fill="#333333" opacity="1" x="6.593" text-anchor="start" y="13.346" textLength="13.956705093383789" style="font-family: Calibri, Candara, Segoe, Segoe UI, Optima, Arial, sans-serif;">+3</tspan></text></g></g><g width="25.05" height="25.05" transform="scale(1,1) translate(316.668,195.025)" filter="url(#7040d756-78f0-425d-8c62-d6142388c06d)"><g transform="scale(1,1) translate(0,0)" stroke="#CFE9F7" fill="#E2AEE3" fill-opacity="1" stroke-opacity="1" filter="url(#269ca40a-70bd-4833-8cf8-24971f7df99c)"><path d="M0,5 a5,5 0 0,1 5,-5 l15.05,0 a5,5 0 0,1 5,5 l0,15.05 a5,5 0 0,1 -5,5 l-15.05,0 a5,5 0 0,1 -5,-5 z" stroke-width="1" stroke-dasharray="none"/></g><g width="21.121314700052782" height="21.121314700052782" transform="scale(1,1) translate(1.964,1.964)"><text width="21.121314700052782" height="16.927082061767578" transform="scale(1,1) translate(0,2.097116319142602)" xml:space="preserve"><tspan xml:space="preserve" text-rendering="optimizeSpeed" font-size="13.88888888888889" font-weight="bold" font-style="italic" text-decoration="none" fill="#333333" opacity="1" x="0.307" text-anchor="start" y="13.346" textLength="3.4077959060668945" style="font-family: Calibri, Candara, Segoe, Segoe UI, Optima, Arial, sans-serif;">i</tspan><tspan xml:space="preserve" text-rendering="optimizeSpeed" font-size="13.88888888888889" font-weight="normal" font-style="normal" text-decoration="none" fill="#333333" opacity="1" x="6.858" text-anchor="start" y="13.346" textLength="13.956705093383789" style="font-family: Calibri, Candara, Segoe, Segoe UI, Optima, Arial, sans-serif;">+4</tspan></text></g></g><g width="24.657" height="24.657" transform="scale(1,1) translate(367.807,195.049)" filter="url(#00b2055b-57af-4dd4-80a8-afff1d7ccff0)"><g transform="scale(1,1) translate(0,0)" stroke="#CFE9F7" fill="#E2AEE3" fill-opacity="1" stroke-opacity="1" filter="url(#d7d7e697-b8d9-42f4-8a90-6d3964c75bf3)"><path d="M0,5 a5,5 0 0,1 5,-5 l14.657,0 a5,5 0 0,1 5,5 l0,14.657 a5,5 0 0,1 -5,5 l-14.657,0 a5,5 0 0,1 -5,-5 z" stroke-width="1" stroke-dasharray="none"/></g><g width="20.72764728773092" height="20.72764728773092" transform="scale(1,1) translate(1.964,1.964)"><text width="20.72764728773092" height="16.927082061767578" transform="scale(1,1) translate(0,1.9002826129816714)" xml:space="preserve"><tspan xml:space="preserve" text-rendering="optimizeSpeed" font-size="13.88888888888889" font-weight="bold" font-style="italic" text-decoration="none" fill="#333333" opacity="1" x="0.11" text-anchor="start" y="13.346" textLength="3.4077959060668945" style="font-family: Calibri, Candara, Segoe, Segoe UI, Optima, Arial, sans-serif;">i</tspan><tspan xml:space="preserve" text-rendering="optimizeSpeed" font-size="13.88888888888889" font-weight="normal" font-style="normal" text-decoration="none" fill="#333333" opacity="1" x="6.661" text-anchor="start" y="13.346" textLength="13.956705093383789" style="font-family: Calibri, Candara, Segoe, Segoe UI, Optima, Arial, sans-serif;">+5</tspan></text></g></g><g width="24.657" height="24.657" transform="scale(1,1) translate(420.38,195.778)" filter="url(#00b2055b-57af-4dd4-80a8-afff1d7ccff0)"><g transform="scale(1,1) translate(0,0)" stroke="#CFE9F7" fill="#E2AEE3" fill-opacity="1" stroke-opacity="1" filter="url(#d7d7e697-b8d9-42f4-8a90-6d3964c75bf3)"><path d="M0,5 a5,5 0 0,1 5,-5 l14.657,0 a5,5 0 0,1 5,5 l0,14.657 a5,5 0 0,1 -5,5 l-14.657,0 a5,5 0 0,1 -5,-5 z" stroke-width="1" stroke-dasharray="none"/></g><g width="20.72764728773092" height="20.72764728773092" transform="scale(1,1) translate(1.964,1.964)"><text width="20.72764728773092" height="16.927082061767578" transform="scale(1,1) translate(0,1.9002826129816714)" xml:space="preserve"><tspan xml:space="preserve" text-rendering="optimizeSpeed" font-size="13.88888888888889" font-weight="bold" font-style="italic" text-decoration="none" fill="#333333" opacity="1" x="0.11" text-anchor="start" y="13.346" textLength="3.4077959060668945" style="font-family: Calibri, Candara, Segoe, Segoe UI, Optima, Arial, sans-serif;">i</tspan><tspan xml:space="preserve" text-rendering="optimizeSpeed" font-size="13.88888888888889" font-weight="normal" font-style="normal" text-decoration="none" fill="#333333" opacity="1" x="6.661" text-anchor="start" y="13.346" textLength="13.956705093383789" style="font-family: Calibri, Candara, Segoe, Segoe UI, Optima, Arial, sans-serif;">+6</tspan></text></g></g><g width="28.031" height="28.031" transform="scale(1,1) translate(479.538,194.091)" filter="url(#2743ccce-76db-4c56-852f-9ddde60fc30d)"><g transform="scale(1,1) translate(0,0)" stroke="#CFE9F7" fill="#E2AEE3" fill-opacity="1" stroke-opacity="1" filter="url(#6dd241f7-3021-46c9-83ec-ae093929635a)"><path d="M0,5 a5,5 0 0,1 5,-5 l18.031,0 a5,5 0 0,1 5,5 l0,18.031 a5,5 0 0,1 -5,5 l-18.031,0 a5,5 0 0,1 -5,-5 z" stroke-width="1" stroke-dasharray="none"/></g><g width="24.101886934478618" height="24.101886934478618" transform="scale(1,1) translate(1.964,1.964)"><text width="24.101886934478618" height="16.927082061767578" transform="scale(1,1) translate(0,3.5874024363555197)" xml:space="preserve"><tspan xml:space="preserve" text-rendering="optimizeSpeed" font-size="13.88888888888889" font-weight="bold" font-style="italic" text-decoration="none" fill="#333333" opacity="1" x="0" text-anchor="start" y="13.346" textLength="6.5511064529418945" style="font-family: Calibri, Candara, Segoe, Segoe UI, Optima, Arial, sans-serif;"> i</tspan><tspan xml:space="preserve" text-rendering="optimizeSpeed" font-size="13.88888888888889" font-weight="normal" font-style="normal" text-decoration="none" fill="#333333" opacity="1" x="6.551" text-anchor="start" y="13.346" textLength="17.094928741455078" style="font-family: Calibri, Candara, Segoe, Segoe UI, Optima, Arial, sans-serif;"> +7</tspan></text></g></g><g width="183.823" height="22.135" transform="scale(1,1) translate(205.845,29.583)"><g stroke="#545454" stroke-opacity="1" stroke-width="0" stroke-dasharray="none" width="183.823" height="22.135" transform="scale(1,1) translate(0,0)" fill="none"><rect width="183.823" height="22.135"/></g><g width="183.82261657714844" height="22.13541603088379" transform="scale(1,1) translate(0,0)"><text width="183.82261657714844" height="22.13541603088379" transform="scale(1,1) translate(0,0)" xml:space="preserve"><tspan xml:space="preserve" text-rendering="optimizeSpeed" font-size="18.055555555555557" font-weight="bold" font-style="normal" text-decoration="none" fill="#333333" opacity="1" x="0" text-anchor="start" y="17.253" textLength="183.82261657714844" style="font-family: Calibri, Candara, Segoe, Segoe UI, Optima, Arial, sans-serif;">Sequential Data Streams</tspan></text></g></g><g width="434.58" height="118.815" transform="scale(1,1) translate(107.141,288.911)"><g stroke="#545454" stroke-opacity="1" stroke-width="0" stroke-dasharray="none" width="434.58" height="118.815" transform="scale(1,1) translate(0,0)" fill="none"><rect width="434.58" height="118.815"/></g><g width="434.58044433593756" height="118.81509780883789" transform="scale(1,1) translate(0,0)"><text width="434.58044433593756" height="118.81509780883789" transform="scale(1,1) translate(0,0)" xml:space="preserve"><tspan xml:space="preserve" text-rendering="optimizeSpeed" font-size="19.444444444444443" font-weight="normal" font-style="italic" text-decoration="none" fill="#333333" opacity="1" x="0" text-anchor="start" y="18.555" textLength="310.6231384277344" style="font-family: Calibri, Candara, Segoe, Segoe UI, Optima, Arial, sans-serif;">"observations" may occur nonuniformly</tspan><tspan xml:space="preserve" text-rendering="optimizeSpeed" font-size="19.444444444444443" font-weight="normal" font-style="italic" text-decoration="none" fill="#333333" opacity="1" x="0" text-anchor="start" y="42.318" textLength="434.5804443359375" style="font-family: Calibri, Candara, Segoe, Segoe UI, Optima, Arial, sans-serif;">    (the time between successive observations may vary)</tspan><tspan xml:space="preserve" text-rendering="optimizeSpeed" font-size="19.444444444444443" font-weight="normal" font-style="italic" text-decoration="none" fill="#333333" opacity="1" x="0" text-anchor="start" y="89.844" textLength="312.9831848144531" style="font-family: Calibri, Candara, Segoe, Segoe UI, Optima, Arial, sans-serif;">indices are presumed uniformly stepped</tspan><tspan xml:space="preserve" text-rendering="optimizeSpeed" font-size="19.444444444444443" font-weight="normal" font-style="italic" text-decoration="none" fill="#333333" opacity="1" x="0" text-anchor="start" y="113.607" textLength="387.9089050292969" style="font-family: Calibri, Candara, Segoe, Segoe UI, Optima, Arial, sans-serif;">   (successive indices are equidistant, usually by 1)</tspan></text></g></g></g></svg>